# xmcd
#
# Track frame offsets: 
#        150
#        12026
#        22854
#        36069
#        51701
#        68446
#        83201
#        99033
#        112559
#        132342
#        143765
#        167432
#        188987
#        201820
#        212990
#        224419
#        243053
#        262934
#        275420
#        288258
#        303608
#        318377
#        334367
#        348277
#
# Disc length: 4797 seconds
#
# Revision: 2
# Processed by: cddbd v1.5.2PL0 Copyright (c) Steve Scherf et al.
# Submitted via: ExactAudioCopy v1.3
#
DISCID=5012bb18
DTITLE=Various Artist - Akella Presents - Vol.36 - Rockin' Rollers Bl
DTITLE=ues  CD2
DYEAR=2013
DGENRE=Blues
TTITLE0=Steve Miller Band - Come On (Let The Good Times Roll)
TTITLE1=John Campbelljohn - Pretty Paula Doy
TTITLE2=The Pirates - Drinking Wine Spo-Dee-O-Dee
TTITLE3=Nathaniel Mayer - I Wanna Dance With You
TTITLE4=Jim Suhler and Monkey Beat - Sunday Drunk
TTITLE5=The Beat Daddys - Beg Borrow Steal
TTITLE6=James Solberg - Champaign Dreams
TTITLE7=Wayne Sharp And The Sharpshooter Band - Gris Gris
TTITLE8=Stray Cats - Elvis On Velvet
TTITLE9=Ty Curtis Band - I'm Gonna Miss You
TTITLE10=John Campbell - Ain't Afraid Of Midnight
TTITLE11=George Thorogood and The Destroyers - Move It
TTITLE12=Bluebirds - Bon Ton Roulet
TTITLE13=Duffy Bishop - First Thing Smokin'
TTITLE14=Blue Room - Goodbye
TTITLE15=Wentus Blues Band - Morning Glory
TTITLE16=Alvin Lee - Jenny, Jenny
TTITLE17=Lew Jetton and 61 South - Rock This House
TTITLE18=Daddy Long Legs - Shiver And Shake
TTITLE19=Jim Belushi and Dan  Aykroyd - Have Love Will Travel
TTITLE20=John Campbelljohn - Nobody's Business
TTITLE21=Mike Morgan and Jim Suhler - Sawed Off Shotgun
TTITLE22=Danny Shirley - Hard Livin'
TTITLE23=The Pirates - 1.30, 2.30, 3.35
EXTD=
EXTT0=
EXTT1=
EXTT2=
EXTT3=
EXTT4=
EXTT5=
EXTT6=
EXTT7=
EXTT8=
EXTT9=
EXTT10=
EXTT11=
EXTT12=
EXTT13=
EXTT14=
EXTT15=
EXTT16=
EXTT17=
EXTT18=
EXTT19=
EXTT20=
EXTT21=
EXTT22=
EXTT23=
PLAYORDER=
